PathFileType	4	(X/Y/Z)	Walk2.trc
DataRate	CameraRate	NumFrames	NumMarkers	Units	OrigDataRate	OrigDataStartFrame	OrigNumFrames
200.000000	200.000000	6	56	mm	200.000000	272	568
Frame#	Times		RASI		RACR1		RUA1		RFA1		RTH2		C7		LFA1		RTH3		RElbow		LElbowM		RCAR		RTH4		RLFC		RTB3		RMT1		RTB1		RWRU		RMT5		LACR1		RTH1		RTB4		RTB2		LTH3		LElbow		RMMAL		LWRU		RWRR		LPSI		CLAV		LTB1		T10		LBHD		RPSI		LTB4		LTB3		LLFC		LTH2		LTH4		LTB2		RBHD		LWRR		LTH1		LFHD		LMT1		RBack		LMMAL		LCAL		LLMAL		RLMAL		RToe		LMT5		RElbowM		LToe		LUA1		LCAR		RCAL
			X1	Y1	Z1	X2	Y2	Z2	X3	Y3	Z3	X4	Y4	Z4	X5	Y5	Z5	X6	Y6	Z6	X7	Y7	Z7	X8	Y8	Z8	X9	Y9	Z9	X10	Y10	Z10	X11	Y11	Z11	X12	Y12	Z12	X13	Y13	Z13	X14	Y14	Z14	X15	Y15	Z15	X16	Y16	Z16	X17	Y17	Z17	X18	Y18	Z18	X19	Y19	Z19	X20	Y20	Z20	X21	Y21	Z21	X22	Y22	Z22	X23	Y23	Z23	X24	Y24	Z24	X25	Y25	Z25	X26	Y26	Z26	X27	Y27	Z27	X28	Y28	Z28	X29	Y29	Z29	X30	Y30	Z30	X31	Y31	Z31	X32	Y32	Z32	X33	Y33	Z33	X34	Y34	Z34	X35	Y35	Z35	X36	Y36	Z36	X37	Y37	Z37	X38	Y38	Z38	X39	Y39	Z39	X40	Y40	Z40	X41	Y41	Z41	X42	Y42	Z42	X43	Y43	Z43	X44	Y44	Z44	X45	Y45	Z45	X46	Y46	Z46	X47	Y47	Z47	X48	Y48	Z48	X49	Y49	Z49	X50	Y50	Z50	X51	Y51	Z51	X52	Y52	Z52	X53	Y53	Z53	X54	Y54	Z54	X55	Y55	Z55	X56	Y56	Z56

272	1.36	-492.92	912.33	405.28	-526.9	1367.4	430.73	-615.19	1191.4	507.86	-690.91	935.15	556.95	-405.54	665.22	409.02	-587.08	1416.3	280.09	-498.19	981.51	-51.238	-417.66	548	426.54	-694.06	1082.3	529.5	-641.31	1083.6	54.79	-703.55	747.46	561.18	-459.25	630.79	447.38	-377.62	458.52	405.19	-261.46	205.1	324.41	-124.48	90.823	282.07	-314.53	387.99	325.89	-732.01	809.64	551.18	-147.55	75.768	362.6	-544.41	1407	106.85	-502.49	714.64	459.02	-286.19	299.45	326.74	-300.59	291.48	398.02	-641.29	552.14	94.777	-616.89	1091	-22.536	-261.65	110.96	276.72	-481.94	863.3	-45.277	-660.53	792.47	523.46	-679.55	939.22	213.24	-454.41	1331.4	268.02	-691.21	341.21	176.04	-685.83	1108.4	265.17	-561.88	1550.3	217.29	-677.75	935.87	318.12	-742.09	263.71	186.76	-788.66	184.15	195.1	-693.31	441.59	114.5	-549.57	620.31	117.52	-614.85	636.64	78.741	-768.88	272.81	120.43	-554.36	1549.6	355.34	-417.71	899.52	-10.062	-585.61	728.97	69.625	-378.89	1578.5	230.47	-754.26	33.807	246.82	-663.44	1328.3	367.31	-867.56	108.71	260.47	-960.92	70.589	222.68	-902.95	99.601	174.48	-281.97	86.022	361.9	-82.357	113.91	309.13	-785.54	29.9	157.22	-711.73	1061.7	435.7	-707.34	25.866	233.51	-583.06	1219.2	2.1575	-400.53	850.55	-58.806	-308.88	21.928	318.95
273	1.365	-484.84	911.31	405.52	-519.97	1366.1	431.62	-608.44	1189.8	508.45	-684.26	933.76	557.26	-396.53	665.19	408.91	-580.12	1415.2	280.83	-490.02	981.09	-50.806	-408.46	547.83	426.51	-686.98	1080.5	529.87	-633.72	1082.4	54.82	-697.23	745.85	561.1	-449.84	630.9	447.17	-368.88	457.78	405.06	-256.03	202.86	323.53	-120.96	87.733	280.8	-307.21	386.2	325.31	-725.45	808.01	551.27	-143.9	72.852	361.51	-537.37	1406.2	107.37	-493.41	714.41	459.52	-279.66	297.57	325.9	-293.76	289.61	397.46	-634.94	551.29	94.935	-609.41	1090.3	-22.571	-257.83	108.66	276.13	-473.28	863.16	-44.854	-654.25	790.81	523.72	-671.82	938.06	213.65	-447.17	1330.4	268.78	-686.01	340.28	175.85	-678.23	1106.9	265.45	-554.91	1549.4	218.36	-669.81	934.74	318.34	-738.09	263.33	186.62	-786.21	184.47	195.07	-686.93	440.84	114.47	-543.17	618.72	117.86	-608.66	635.26	79.406	-764.82	273.17	120.36	-547.25	1548.6	356.38	-409.36	899.88	-9.5639	-578.82	728.07	69.776	-371.99	1577.6	231.55	-754.18	33.78	246.79	-656.35	1326.8	367.91	-865.98	110.48	260.37	-959.94	73.718	222.41	-901.59	101.8	174.22	-278.06	83.874	361.49	-78.421	110.47	307.6	-785.29	29.969	157.42	-704.77	1060.3	435.9	-707.42	25.849	233.61	-575.78	1218.7	2.4858	-391.72	850.77	-57.867	-306.41	21.575	319.1
274	1.37	-477.19	910.32	405.87	-512.59	1364.7	432.15	-601.63	1188.6	508.95	-677.51	932.23	557.25	-387.28	665.05	408.77	-573.28	1414	281.68	-482	980.64	-50.341	-399.55	547.73	426.52	-679.9	1079	530.13	-626.28	1081.5	54.961	-690.42	744.24	561.05	-440.87	630.57	447.06	-360.36	456.78	405.12	-251.29	200.22	322.58	-118.15	84.051	279.78	-299.97	384.33	324.61	-718.63	806.53	551.21	-140.89	69.152	359.86	-530.4	1405.3	108.23	-484.21	714.27	459.46	-273.51	295.5	325.14	-287.33	287.86	396.69	-628.17	550.28	95.085	-601.88	1089.5	-22.169	-254.7	105.71	275.48	-464.78	863.14	-44.469	-647.14	789.65	523.79	-664.43	937.22	213.75	-440.1	1329.4	269.38	-680.88	339	176.1	-670.55	1105.5	265.93	-548.03	1548.7	219.5	-662.37	933.83	318.53	-733.98	263.01	186.63	-783.41	184.82	194.98	-680.31	440.05	114.47	-535.87	617.61	117.33	-601.61	634.35	79.18	-760.48	273.21	120.25	-540.27	1547.6	357.4	-401.09	899.98	-9.1295	-571.78	727.29	70.036	-365.14	1576.8	232.62	-754.07	33.775	246.75	-649.34	1325.5	368.46	-864.33	112.08	260.11	-958.95	76.998	222.17	-899.93	104.03	173.95	-274.46	81.845	361.41	-75.071	106.54	305.97	-785.04	30.104	157.49	-697.81	1058.7	436.24	-707.5	25.835	233.69	-568.51	1217.9	3.0657	-382.94	850.87	-57.246	-305.22	21.431	319.23
275	1.375	-469.16	909.4	406.31	-505.85	1363.5	433.06	-594.17	1187	509.41	-670.24	930.56	557.49	-377.92	664.89	408.96	-566.13	1412.8	282.65	-474.21	980.5	-49.975	-390.69	547.57	426.34	-672.93	1077.5	530.45	-619.26	1080.7	55.014	-683.55	742.65	561.1	-432.1	630.08	446.98	-351.64	455.78	404.85	-246.23	197.75	321.22	-115.68	78.87	279.38	-292.91	382.65	323.89	-711.76	804.94	551.18	-138.24	63.36	358.33	-523.68	1404.6	108.89	-475.19	714.26	458.83	-267.3	293.31	324.19	-281.18	285.82	395.44	-621.17	549.39	95.499	-594.53	1088.9	-21.967	-251.55	103.39	274.49	-456.67	862.9	-44.029	-640.44	787.86	523.95	-656.94	936.23	214.04	-432.99	1328.7	270.2	-675.36	337.63	176.17	-663.02	1104.5	266.28	-541.23	1547.8	220.63	-654.43	933.04	318.92	-729.94	262.8	186.65	-780.36	185.43	194.89	-673.6	439.39	114.65	-528.61	617.13	117.28	-594.32	634	79.312	-755.84	273.4	120.09	-533.48	1546.5	358.49	-393.03	900.12	-8.4042	-564.61	726.45	70.351	-358.1	1575.7	233.68	-754.03	33.687	246.75	-642.54	1324.1	369.13	-862.63	114.05	259.68	-957.71	80.69	221.8	-898.26	106.5	173.49	-271.46	79.692	360.37	-72.1	100.43	303.8	-784.74	30.297	157.43	-690.53	1057.5	436.47	-707.59	25.847	233.76	-561.44	1217.3	3.7466	-374.73	851.13	-56.764	-304.92	22.26	318.47
276	1.38	-461.27	908.35	406.54	-499.17	1362.3	434.08	-587.16	1185.5	509.98	-663.08	929.01	557.76	-368.87	664.83	409.38	-559.11	1411.9	283.36	-466.45	980.33	-49.551	-382.26	547.39	425.67	-665.75	1076	530.73	-612.25	1080.2	55.154	-676.43	741.15	560.94	-423.36	630.21	446.49	-343.19	454.99	404.91	-240.94	196.19	319.7	-112.61	70.959	278.94	-285.34	381.45	322.95	-704.54	803.35	551.23	-136.43	55.457	357.99	-516.49	1403.8	109.85	-466.94	714.17	457.97	-261.05	291.91	323.28	-275.21	284.17	394.05	-613.78	548.56	95.551	-587.11	1088.2	-21.743	-248.25	102.12	273.46	-448.39	862.64	-43.381	-633.58	786.4	524.12	-649.18	935.45	214.36	-425.85	1328	271.05	-669.55	336.67	176.26	-655.51	1103.4	266.92	-534.11	1547.1	221.74	-646.86	932.19	319.15	-725.88	262.59	186.63	-777.08	186.22	194.57	-666.61	438.42	114.86	-521.2	616.3	117.24	-587.04	633.28	79.461	-751.12	273.56	119.96	-526.57	1545.6	359.6	-385.11	899.97	-7.7641	-557.38	725.43	70.982	-351.14	1575	234.82	-753.87	33.813	246.62	-635.35	1322.7	369.98	-860.68	115.88	259.24	-956.24	84.478	221.09	-896.26	108.99	172.99	-268.67	78.124	358.73	-69.328	90.468	302.29	-784.31	30.537	157.36	-683.33	1056.1	436.95	-707.68	25.813	233.88	-554.32	1216.6	4.2731	-366.43	851.32	-56.005	-304.7	23.625	317.7
277	1.385	-453.59	907.64	406.5	-492.27	1361.5	435.08	-580.03	1184.2	510.53	-655.64	927.63	558.01	-360	664.99	410.13	-552.04	1411	284.38	-458.7	980.19	-49.019	-374.12	547.44	424.67	-658.02	1074.5	531.23	-605	1079.4	55.438	-668.93	739.63	560.91	-415.05	630.43	445.9	-334.64	455.08	404.97	-235.82	195.49	318.95	-109.48	62.026	276.98	-277.84	381.05	322.23	-696.8	801.7	551.44	-135	49.374	357.69	-509.74	1403.4	110.58	-458.45	714.62	456.94	-254.78	291.05	322.62	-268.39	283.68	392.96	-606.12	547.52	95.701	-579.85	1087.7	-21.558	-244.6	101.38	272.78	-440.47	862.57	-43.055	-625.99	784.89	524.1	-641.34	934.58	214.81	-418.64	1327.4	271.89	-663.54	335.32	176.55	-648.04	1102.7	267.24	-527.2	1546.4	222.72	-639.29	931.44	319.35	-720.98	262.48	186.71	-773.94	186.87	194.19	-659.04	437.32	115.06	-513.63	615.3	117.32	-579.66	632.23	79.789	-746.25	273.92	119.91	-519.52	1544.9	360.65	-377.39	900.02	-7.066	-550.14	724.53	71.666	-344.3	1574.6	235.63	-753.71	33.874	246.5	-628.17	1321.5	370.64	-858.47	118.07	258.51	-954.5	88.514	220.19	-894.12	111.69	172.23	-265.48	78.346	357.8	-66.046	79.257	303	-783.83	30.824	157.32	-675.89	1054.3	437.28	-707.79	25.855	234.01	-547.39	1216.1	4.8489	-358.27	851.37	-55.416	-303.43	25.187	317.52
